<svg width="32" height="32" viewBox="0 0 32 32" fill="none" xmlns="http://www.w3.org/2000/svg">
<circle cx="16" cy="16" r="16" fill="#40A2F5"/>
<path fill-rule="evenodd" clip-rule="evenodd" d="M23.6189 11.349C23.0472 11.5973 22.442 11.7601 21.8229 11.832C22.4731 11.451 22.9614 10.8453 23.1959 10.129C22.5813 10.4879 21.9105 10.7405 21.2119 10.876C20.917 10.5679 20.5626 10.3229 20.1701 10.156C19.7777 9.98908 19.3553 9.9037 18.9289 9.90505C17.2039 9.90505 15.8029 11.284 15.8029 12.983C15.8029 13.225 15.8309 13.46 15.8849 13.683C14.6465 13.6244 13.434 13.3081 12.3247 12.7543C11.2155 12.2006 10.234 11.4216 9.44286 10.467C9.16561 10.9354 9.0195 11.4698 9.01986 12.014C9.01986 13.082 9.57186 14.024 10.4109 14.575C9.91517 14.5597 9.43005 14.4278 8.99486 14.19V14.228C8.99486 15.719 10.0719 16.964 11.5019 17.246C11.0408 17.3676 10.5585 17.3851 10.0899 17.297C10.2945 17.9124 10.6855 18.4488 11.2087 18.8319C11.732 19.215 12.3614 19.4258 13.0099 19.435C11.8978 20.2937 10.5318 20.7581 9.12686 20.755C8.87386 20.755 8.62686 20.739 8.38086 20.712C9.81479 21.618 11.4767 22.0976 13.1729 22.095C18.9229 22.095 22.0659 17.405 22.0659 13.337C22.0664 13.204 22.0634 13.0709 22.0569 12.938C22.6679 12.5042 23.1963 11.9643 23.6169 11.344L23.6189 11.349Z" fill="white"/>
</svg>
