<svg width="32" height="32" viewBox="0 0 32 32" fill="none" xmlns="http://www.w3.org/2000/svg">
<path d="M16 32C24.8366 32 32 24.8366 32 16C32 7.16344 24.8366 0 16 0C7.16344 0 0 7.16344 0 16C0 24.8366 7.16344 32 16 32Z" fill="url(#paint0_radial_1_131)"/>
<path d="M19.8769 25H12.1231C10.7649 24.9985 9.46265 24.4583 8.5022 23.4978C7.54175 22.5374 7.00151 21.2352 7 19.8769V12.1231C7.00155 10.7648 7.5418 9.46263 8.50224 8.5022C9.46268 7.54177 10.7649 7.00153 12.1231 7H19.8769C21.2351 7.00155 22.5373 7.54179 23.4977 8.50222C24.4582 9.46264 24.9984 10.7648 25 12.1231V19.8769C24.9985 21.2352 24.4582 22.5374 23.4978 23.4978C22.5373 24.4583 21.2351 24.9985 19.8769 25ZM12.1231 8.54291C11.1739 8.54397 10.2639 8.92151 9.59271 9.59268C8.92151 10.2639 8.54395 11.1739 8.54286 12.1231V19.8769C8.54393 20.8262 8.92147 21.7362 9.59267 22.4074C10.2639 23.0786 11.1739 23.4561 12.1231 23.4572H19.8769C20.8261 23.4561 21.7361 23.0786 22.4073 22.4074C23.0785 21.7362 23.4561 20.8262 23.4571 19.8769V12.1231C23.4561 11.1739 23.0785 10.2638 22.4073 9.59267C21.7361 8.92149 20.8261 8.54397 19.8769 8.54291H12.1231Z" fill="white"/>
<path d="M15.9999 20.6087C14.778 20.6073 13.6065 20.1213 12.7425 19.2573C11.8785 18.3933 11.3925 17.2218 11.3911 15.9999C11.3925 14.778 11.8785 13.6066 12.7425 12.7425C13.6066 11.8785 14.778 11.3925 15.9999 11.3911C17.2218 11.3925 18.3933 11.8785 19.2573 12.7425C20.1213 13.6066 20.6073 14.778 20.6087 15.9999C20.6073 17.2218 20.1213 18.3933 19.2573 19.2573C18.3933 20.1213 17.2218 20.6073 15.9999 20.6087ZM15.9999 12.934C15.1871 12.9349 14.4078 13.2582 13.833 13.833C13.2582 14.4078 12.9349 15.1871 12.934 15.9999C12.9349 16.8128 13.2582 17.5921 13.833 18.1669C14.4077 18.7417 15.1871 19.065 15.9999 19.0659C16.8128 19.065 17.5921 18.7417 18.1669 18.1669C18.7416 17.5921 19.0649 16.8128 19.0659 15.9999C19.0649 15.1871 18.7416 14.4078 18.1669 13.833C17.5921 13.2582 16.8128 12.9349 15.9999 12.934Z" fill="white"/>
<path d="M21.9141 11.1274C21.9141 11.2728 21.8854 11.4169 21.8298 11.5512C21.7741 11.6856 21.6925 11.8077 21.5897 11.9106C21.4868 12.0134 21.3647 12.095 21.2303 12.1507C21.0959 12.2063 20.9519 12.235 20.8064 12.235C20.6609 12.235 20.5169 12.2063 20.3825 12.1507C20.2481 12.095 20.126 12.0134 20.0231 11.9106C19.9203 11.8077 19.8387 11.6856 19.783 11.5512C19.7274 11.4169 19.6987 11.2728 19.6987 11.1274C19.6987 10.9819 19.7274 10.8379 19.783 10.7035C19.8387 10.5691 19.9203 10.4469 20.0231 10.3441C20.126 10.2412 20.2481 10.1596 20.3825 10.104C20.5169 10.0483 20.6609 10.0197 20.8064 10.0197C20.9519 10.0197 21.0959 10.0483 21.2303 10.104C21.3647 10.1596 21.4868 10.2412 21.5897 10.3441C21.6925 10.4469 21.7741 10.5691 21.8298 10.7035C21.8854 10.8378 21.9141 10.9819 21.9141 11.1274Z" fill="white"/>
<defs>
<radialGradient id="paint0_radial_1_131" cx="0" cy="0" r="1" gradientUnits="userSpaceOnUse" gradientTransform="translate(5.16266 31.5693) scale(38.6151)">
<stop stop-color="#FEC053"/>
<stop offset="0.32727" stop-color="#F2203E"/>
<stop offset="0.64848" stop-color="#B729A8"/>
<stop offset="1" stop-color="#5342D6"/>
</radialGradient>
</defs>
</svg>
